{"buffers":[{"uri":"Mouse.bin","byteLength":330468}],"asset":{"version":"2.0","generator":"gltfpack 0.16"},"bufferViews":[{"buffer":0,"byteOffset":0,"byteLength":126504,"byteStride":12,"target":34962},{"buffer":0,"byteOffset":126504,"byteLength":126504,"byteStride":12,"target":34962},{"buffer":0,"byteOffset":253008,"byteLength":77460,"target":34963}],"accessors":[{"bufferView":0,"byteOffset":0,"componentType":5126,"count":66,"type":"VEC3","min":[0.0146108679,-0.00720000034,0.00910271797],"max":[0.0194000006,-0.00220000022,0.0138972821]},{"bufferView":1,"byteOffset":0,"componentType":5126,"count":66,"type":"VEC3"},{"bufferView":2,"byteOffset":0,"componentType":5123,"count":198,"type":"SCALAR"},{"bufferView":0,"byteOffset":792,"componentType":5126,"count":33,"type":"VEC3","min":[0.0146108679,-0.00220000022,0.00910271797],"max":[0.0194000006,-0.00220000022,0.0138972821]},{"bufferView":1,"byteOffset":792,"componentType":5126,"count":33,"type":"VEC3"},{"bufferView":2,"byteOffset":396,"componentType":5123,"count":93,"type":"SCALAR"},{"bufferView":0,"byteOffset":1188,"componentType":5126,"count":48,"type":"VEC3","min":[0.0156614184,-0.0107000005,0.0021239901],"max":[0.0183385815,-0.0107000005,0.0128462911]},{"bufferView":1,"byteOffset":1188,"componentType":5126,"count":48,"type":"VEC3"},{"bufferView":2,"byteOffset":582,"componentType":5123,"count":138,"type":"SCALAR"},{"bufferView":0,"byteOffset":1764,"componentType":5126,"count":218,"type":"VEC3","min":[0.0132503882,-0.0107000005,0.010999593],"max":[0.0207496118,-0.00720000034,0.0152397044]},{"bufferView":1,"byteOffset":1764,"componentType":5126,"count":218,"type":"VEC3"},{"bufferView":2,"byteOffset":858,"componentType":5123,"count":1137,"type":"SCALAR"},{"bufferView":0,"byteOffset":4380,"componentType":5126,"count":32,"type":"VEC3","min":[0.0170000009,-0.0107000005,0],"max":[0.0240000002,-0.00720000034,0.00349999988]},{"bufferView":1,"byteOffset":4380,"componentType":5126,"count":32,"type":"VEC3"},{"bufferView":2,"byteOffset":3132,"componentType":5123,"count":90,"type":"SCALAR"},{"bufferView":0,"byteOffset":4764,"componentType":5126,"count":111,"type":"VEC3","min":[0.0240000002,-0.0107000005,0],"max":[0.0274999999,-0.00720000034,0.00349999988]},{"bufferView":1,"byteOffset":4764,"componentType":5126,"count":111,"type":"VEC3"},{"bufferView":2,"byteOffset":3312,"componentType":5123,"count":570,"type":"SCALAR"},{"bufferView":0,"byteOffset":6096,"componentType":5126,"count":73,"type":"VEC3","min":[0.0132503882,-0.00720000034,0],"max":[0.0274999999,-0.00720000034,0.0152397044]},{"bufferView":1,"byteOffset":6096,"componentType":5126,"count":73,"type":"VEC3"},{"bufferView":2,"byteOffset":4452,"componentType":5123,"count":219,"type":"SCALAR"},{"bufferView":0,"byteOffset":6972,"componentType":5126,"count":22,"type":"VEC3","min":[0.0135000004,-0.0107000005,0],"max":[0.0274999999,-0.00720000034,0]},{"bufferView":1,"byteOffset":6972,"componentType":5126,"count":22,"type":"VEC3"},{"bufferView":2,"byteOffset":4890,"componentType":5123,"count":60,"type":"SCALAR"},{"bufferView":0,"byteOffset":7236,"componentType":5126,"count":26,"type":"VEC3","min":[0.0135000004,-0.0107000005,0],"max":[0.0170000009,-0.00720000034,0.000521571143]},{"bufferView":1,"byteOffset":7236,"componentType":5126,"count":26,"type":"VEC3"},{"bufferView":2,"byteOffset":5010,"componentType":5123,"count":72,"type":"SCALAR"},{"bufferView":0,"byteOffset":7548,"componentType":5126,"count":77,"type":"VEC3","min":[0.0132835377,-0.0107000005,0.000521571143],"max":[0.0207164623,-0.00720000034,0.010999593]},{"bufferView":1,"byteOffset":7548,"componentType":5126,"count":77,"type":"VEC3"},{"bufferView":2,"byteOffset":5154,"componentType":5123,"count":225,"type":"SCALAR"},{"bufferView":0,"byteOffset":8472,"componentType":5126,"count":66,"type":"VEC3","min":[-0.0063891327,-0.00720000034,0.00910271797],"max":[-0.00159999996,-0.00219999999,0.0138972821]},{"bufferView":1,"byteOffset":8472,"componentType":5126,"count":66,"type":"VEC3"},{"bufferView":2,"byteOffset":5604,"componentType":5123,"count":198,"type":"SCALAR"},{"bufferView":0,"byteOffset":9264,"componentType":5126,"count":33,"type":"VEC3","min":[-0.0063891327,-0.00219999999,0.00910271797],"max":[-0.00159999996,-0.00219999999,0.0138972821]},{"bufferView":1,"byteOffset":9264,"componentType":5126,"count":33,"type":"VEC3"},{"bufferView":2,"byteOffset":6000,"componentType":5123,"count":93,"type":"SCALAR"},{"bufferView":0,"byteOffset":9660,"componentType":5126,"count":48,"type":"VEC3","min":[-0.00533858174,-0.0107000005,0.0021239901],"max":[-0.0026614191,-0.0107000005,0.0128462911]},{"bufferView":1,"byteOffset":9660,"componentType":5126,"count":48,"type":"VEC3"},{"bufferView":2,"byteOffset":6186,"componentType":5123,"count":138,"type":"SCALAR"},{"bufferView":0,"byteOffset":10236,"componentType":5126,"count":218,"type":"VEC3","min":[-0.00774961151,-0.0107000005,0.010999593],"max":[-0.00025038817,-0.00720000034,0.0152397044]},{"bufferView":1,"byteOffset":10236,"componentType":5126,"count":218,"type":"VEC3"},{"bufferView":2,"byteOffset":6462,"componentType":5123,"count":1137,"type":"SCALAR"},{"bufferView":0,"byteOffset":12852,"componentType":5126,"count":32,"type":"VEC3","min":[-0.00400000019,-0.0107000005,0],"max":[0.00299999979,-0.00720000034,0.00349999988]},{"bufferView":1,"byteOffset":12852,"componentType":5126,"count":32,"type":"VEC3"},{"bufferView":2,"byteOffset":8736,"componentType":5123,"count":90,"type":"SCALAR"},{"bufferView":0,"byteOffset":13236,"componentType":5126,"count":111,"type":"VEC3","min":[0.00299999979,-0.0107000005,0],"max":[0.00649999967,-0.00720000034,0.00349999988]},{"bufferView":1,"byteOffset":13236,"componentType":5126,"count":111,"type":"VEC3"},{"bufferView":2,"byteOffset":8916,"componentType":5123,"count":570,"type":"SCALAR"},{"bufferView":0,"byteOffset":14568,"componentType":5126,"count":73,"type":"VEC3","min":[-0.00774961151,-0.00720000034,0],"max":[0.00649999967,-0.00720000034,0.0152397044]},{"bufferView":1,"byteOffset":14568,"componentType":5126,"count":73,"type":"VEC3"},{"bufferView":2,"byteOffset":10056,"componentType":5123,"count":219,"type":"SCALAR"},{"bufferView":0,"byteOffset":15444,"componentType":5126,"count":22,"type":"VEC3","min":[-0.00749999983,-0.0107000005,0],"max":[0.00649999967,-0.00720000034,0]},{"bufferView":1,"byteOffset":15444,"componentType":5126,"count":22,"type":"VEC3"},{"bufferView":2,"byteOffset":10494,"componentType":5123,"count":60,"type":"SCALAR"},{"bufferView":0,"byteOffset":15708,"componentType":5126,"count":26,"type":"VEC3","min":[-0.00749999983,-0.0107000005,0],"max":[-0.00400000019,-0.00720000034,0.000521571143]},{"bufferView":1,"byteOffset":15708,"componentType":5126,"count":26,"type":"VEC3"},{"bufferView":2,"byteOffset":10614,"componentType":5123,"count":72,"type":"SCALAR"},{"bufferView":0,"byteOffset":16020,"componentType":5126,"count":77,"type":"VEC3","min":[-0.00771646248,-0.0107000005,0.000521571143],"max":[-0.000283537607,-0.00720000034,0.010999593]},{"bufferView":1,"byteOffset":16020,"componentType":5126,"count":77,"type":"VEC3"},{"bufferView":2,"byteOffset":10758,"componentType":5123,"count":225,"type":"SCALAR"},{"bufferView":0,"byteOffset":16944,"componentType":5126,"count":66,"type":"VEC3","min":[0.0146108679,0.0122000007,0.00910271797],"max":[0.0194000006,0.0172000006,0.0138972821]},{"bufferView":1,"byteOffset":16944,"componentType":5126,"count":66,"type":"VEC3"},{"bufferView":2,"byteOffset":11208,"componentType":5123,"count":198,"type":"SCALAR"},{"bufferView":0,"byteOffset":17736,"componentType":5126,"count":33,"type":"VEC3","min":[0.0146108679,0.0122000007,0.00910271797],"max":[0.0194000006,0.0122000007,0.0138972821]},{"bufferView":1,"byteOffset":17736,"componentType":5126,"count":33,"type":"VEC3"},{"bufferView":2,"byteOffset":11604,"componentType":5123,"count":93,"type":"SCALAR"},{"bufferView":0,"byteOffset":18132,"componentType":5126,"count":48,"type":"VEC3","min":[0.0156614184,0.0207000002,0.0021239901],"max":[0.0183385815,0.0207000002,0.0128462911]},{"bufferView":1,"byteOffset":18132,"componentType":5126,"count":48,"type":"VEC3"},{"bufferView":2,"byteOffset":11790,"componentType":5123,"count":138,"type":"SCALAR"},{"bufferView":0,"byteOffset":18708,"componentType":5126,"count":218,"type":"VEC3","min":[0.0132503882,0.0172000006,0.010999593],"max":[0.0207496118,0.0207000002,0.0152397044]},{"bufferView":1,"byteOffset":18708,"componentType":5126,"count":218,"type":"VEC3"},{"bufferView":2,"byteOffset":12066,"componentType":5123,"count":1137,"type":"SCALAR"},{"bufferView":0,"byteOffset":21324,"componentType":5126,"count":32,"type":"VEC3","min":[0.0170000009,0.0172000006,0],"max":[0.0240000002,0.0207000002,0.00349999988]},{"bufferView":1,"byteOffset":21324,"componentType":5126,"count":32,"type":"VEC3"},{"bufferView":2,"byteOffset":14340,"componentType":5123,"count":90,"type":"SCALAR"},{"bufferView":0,"byteOffset":21708,"componentType":5126,"count":568,"type":"VEC3","min":[0.0240000002,0.0172000006,0],"max":[0.0274999999,0.0207000002,0.00349999988]},{"bufferView":1,"byteOffset":21708,"componentType":5126,"count":568,"type":"VEC3"},{"bufferView":2,"byteOffset":14520,"componentType":5123,"count":570,"type":"SCALAR"},{"bufferView":0,"byteOffset":28524,"componentType":5126,"count":73,"type":"VEC3","min":[0.0132503882,0.0172000006,0],"max":[0.0274999999,0.0172000006,0.0152397044]},{"bufferView":1,"byteOffset":28524,"componentType":5126,"count":73,"type":"VEC3"},{"bufferView":2,"byteOffset":15660,"componentType":5123,"count":219,"type":"SCALAR"},{"bufferView":0,"byteOffset":29400,"componentType":5126,"count":22,"type":"VEC3","min":[0.0135000004,0.0172000006,0],"max":[0.0274999999,0.0207000002,0]},{"bufferView":1,"byteOffset":29400,"componentType":5126,"count":22,"type":"VEC3"},{"bufferView":2,"byteOffset":16098,"componentType":5123,"count":60,"type":"SCALAR"},{"bufferView":0,"byteOffset":29664,"componentType":5126,"count":26,"type":"VEC3","min":[0.0135000004,0.0172000006,0],"max":[0.0170000009,0.0207000002,0.000521571143]},{"bufferView":1,"byteOffset":29664,"componentType":5126,"count":26,"type":"VEC3"},{"bufferView":2,"byteOffset":16218,"componentType":5123,"count":72,"type":"SCALAR"},{"bufferView":0,"byteOffset":29976,"componentType":5126,"count":77,"type":"VEC3","min":[0.0132835377,0.0172000006,0.000521571143],"max":[0.0207164623,0.0207000002,0.010999593]},{"bufferView":1,"byteOffset":29976,"componentType":5126,"count":77,"type":"VEC3"},{"bufferView":2,"byteOffset":16362,"componentType":5123,"count":225,"type":"SCALAR"},{"bufferView":0,"byteOffset":30900,"componentType":5126,"count":66,"type":"VEC3","min":[-0.0063891327,0.0122000007,0.00910271797],"max":[-0.00159999996,0.0172000006,0.0138972821]},{"bufferView":1,"byteOffset":30900,"componentType":5126,"count":66,"type":"VEC3"},{"bufferView":2,"byteOffset":16812,"componentType":5123,"count":198,"type":"SCALAR"},{"bufferView":0,"byteOffset":31692,"componentType":5126,"count":33,"type":"VEC3","min":[-0.0063891327,0.0122000007,0.00910271797],"max":[-0.00159999996,0.0122000007,0.0138972821]},{"bufferView":1,"byteOffset":31692,"componentType":5126,"count":33,"type":"VEC3"},{"bufferView":2,"byteOffset":17208,"componentType":5123,"count":93,"type":"SCALAR"},{"bufferView":0,"byteOffset":32088,"componentType":5126,"count":48,"type":"VEC3","min":[-0.00533858174,0.0207000002,0.0021239901],"max":[-0.0026614191,0.0207000002,0.0128462911]},{"bufferView":1,"byteOffset":32088,"componentType":5126,"count":48,"type":"VEC3"},{"bufferView":2,"byteOffset":17394,"componentType":5123,"count":138,"type":"SCALAR"},{"bufferView":0,"byteOffset":32664,"componentType":5126,"count":218,"type":"VEC3","min":[-0.00774961151,0.0172000006,0.010999593],"max":[-0.00025038817,0.0207000002,0.0152397044]},{"bufferView":1,"byteOffset":32664,"componentType":5126,"count":218,"type":"VEC3"},{"bufferView":2,"byteOffset":17670,"componentType":5123,"count":1137,"type":"SCALAR"},{"bufferView":0,"byteOffset":35280,"componentType":5126,"count":32,"type":"VEC3","min":[-0.00400000019,0.0172000006,0],"max":[0.00299999979,0.0207000002,0.00349999988]},{"bufferView":1,"byteOffset":35280,"componentType":5126,"count":32,"type":"VEC3"},{"bufferView":2,"byteOffset":19944,"componentType":5123,"count":90,"type":"SCALAR"},{"bufferView":0,"byteOffset":35664,"componentType":5126,"count":568,"type":"VEC3","min":[0.00299999979,0.0172000006,0],"max":[0.00649999967,0.0207000002,0.00349999988]},{"bufferView":1,"byteOffset":35664,"componentType":5126,"count":568,"type":"VEC3"},{"bufferView":2,"byteOffset":20124,"componentType":5123,"count":570,"type":"SCALAR"},{"bufferView":0,"byteOffset":42480,"componentType":5126,"count":73,"type":"VEC3","min":[-0.00774961151,0.0172000006,0],"max":[0.00649999967,0.0172000006,0.0152397044]},{"bufferView":1,"byteOffset":42480,"componentType":5126,"count":73,"type":"VEC3"},{"bufferView":2,"byteOffset":21264,"componentType":5123,"count":219,"type":"SCALAR"},{"bufferView":0,"byteOffset":43356,"componentType":5126,"count":22,"type":"VEC3","min":[-0.00749999983,0.0172000006,0],"max":[0.00649999967,0.0207000002,0]},{"bufferView":1,"byteOffset":43356,"componentType":5126,"count":22,"type":"VEC3"},{"bufferView":2,"byteOffset":21702,"componentType":5123,"count":60,"type":"SCALAR"},{"bufferView":0,"byteOffset":43620,"componentType":5126,"count":26,"type":"VEC3","min":[-0.00749999983,0.0172000006,0],"max":[-0.00400000019,0.0207000002,0.000521571143]},{"bufferView":1,"byteOffset":43620,"componentType":5126,"count":26,"type":"VEC3"},{"bufferView":2,"byteOffset":21822,"componentType":5123,"count":72,"type":"SCALAR"},{"bufferView":0,"byteOffset":43932,"componentType":5126,"count":77,"type":"VEC3","min":[-0.00771646248,0.0172000006,0.000521571143],"max":[-0.000283537607,0.0207000002,0.010999593]},{"bufferView":1,"byteOffset":43932,"componentType":5126,"count":77,"type":"VEC3"},{"bufferView":2,"byteOffset":21966,"componentType":5123,"count":225,"type":"SCALAR"},{"bufferView":0,"byteOffset":44856,"componentType":5126,"count":306,"type":"VEC3","min":[-0.0585398637,0.00276248995,0.00160620769],"max":[-0.0551924855,0.00698985206,0.00639400678]},{"bufferView":1,"byteOffset":44856,"componentType":5126,"count":306,"type":"VEC3"},{"bufferView":2,"byteOffset":22416,"componentType":5123,"count":1686,"type":"SCALAR"},{"bufferView":0,"byteOffset":48528,"componentType":5126,"count":1128,"type":"VEC3","min":[-0.0576091111,0.00118111877,0.00159999996],"max":[-0.0189999994,0.0102994256,0.00639999984]},{"bufferView":1,"byteOffset":48528,"componentType":5126,"count":1128,"type":"VEC3"},{"bufferView":2,"byteOffset":25788,"componentType":5123,"count":6582,"type":"SCALAR"},{"bufferView":0,"byteOffset":62064,"componentType":5126,"count":12,"type":"VEC3","min":[-0.0583227053,0.00537711382,0.00360063487],"max":[-0.05804554,0.00591209764,0.00439936342]},{"bufferView":1,"byteOffset":62064,"componentType":5126,"count":12,"type":"VEC3"},{"bufferView":2,"byteOffset":38952,"componentType":5123,"count":30,"type":"SCALAR"},{"bufferView":0,"byteOffset":62208,"componentType":5126,"count":47,"type":"VEC3","min":[-0.0189999994,0.00260000001,0.00159999996],"max":[-0.0129999993,0.0074,0.00639999984]},{"bufferView":1,"byteOffset":62208,"componentType":5126,"count":47,"type":"VEC3"},{"bufferView":2,"byteOffset":39012,"componentType":5123,"count":141,"type":"SCALAR"},{"bufferView":0,"byteOffset":62772,"componentType":5126,"count":23,"type":"VEC3","min":[-0.0129999993,0.00260000001,0.00160559488],"max":[-0.0129999993,0.0073776464,0.00639440492]},{"bufferView":1,"byteOffset":62772,"componentType":5126,"count":23,"type":"VEC3"},{"bufferView":2,"byteOffset":39294,"componentType":5123,"count":63,"type":"SCALAR"},{"bufferView":0,"byteOffset":63048,"componentType":5126,"count":20,"type":"VEC3","min":[0.00124999997,0.00349999988,0.00124999997],"max":[0.00249999994,0.00649999967,0.00249999994]},{"bufferView":1,"byteOffset":63048,"componentType":5126,"count":20,"type":"VEC3"},{"bufferView":2,"byteOffset":39420,"componentType":5123,"count":54,"type":"SCALAR"},{"bufferView":0,"byteOffset":63288,"componentType":5126,"count":4,"type":"VEC3","min":[0.00249999994,0.00349999988,0.00124999997],"max":[0.00649999967,0.00649999967,0.00124999997]},{"bufferView":1,"byteOffset":63288,"componentType":5126,"count":4,"type":"VEC3"},{"bufferView":2,"byteOffset":39528,"componentType":5123,"count":6,"type":"SCALAR"},{"bufferView":0,"byteOffset":63336,"componentType":5126,"count":20,"type":"VEC3","min":[0.00649999967,0.00349999988,0.00449999981],"max":[0.00774999987,0.00649999967,0.00575000001]},{"bufferView":1,"byteOffset":63336,"componentType":5126,"count":20,"type":"VEC3"},{"bufferView":2,"byteOffset":39540,"componentType":5123,"count":54,"type":"SCALAR"},{"bufferView":0,"byteOffset":63576,"componentType":5126,"count":4,"type":"VEC3","min":[0.00249999994,0.00349999988,0.00575000001],"max":[0.00649999967,0.00649999967,0.00575000001]},{"bufferView":1,"byteOffset":63576,"componentType":5126,"count":4,"type":"VEC3"},{"bufferView":2,"byteOffset":39648,"componentType":5123,"count":6,"type":"SCALAR"},{"bufferView":0,"byteOffset":63624,"componentType":5126,"count":20,"type":"VEC3","min":[0.00124999997,0.00349999988,0.00449999981],"max":[0.00249999994,0.00649999967,0.00575000001]},{"bufferView":1,"byteOffset":63624,"componentType":5126,"count":20,"type":"VEC3"},{"bufferView":2,"byteOffset":39660,"componentType":5123,"count":54,"type":"SCALAR"},{"bufferView":0,"byteOffset":63864,"componentType":5126,"count":4,"type":"VEC3","min":[0.00124999997,0.00349999988,0.00249999994],"max":[0.00124999997,0.00649999967,0.00449999981]},{"bufferView":1,"byteOffset":63864,"componentType":5126,"count":4,"type":"VEC3"},{"bufferView":2,"byteOffset":39768,"componentType":5123,"count":6,"type":"SCALAR"},{"bufferView":0,"byteOffset":63912,"componentType":5126,"count":20,"type":"VEC3","min":[0.00649999967,0.00349999988,0.00124999997],"max":[0.00774999987,0.00649999967,0.00249999994]},{"bufferView":1,"byteOffset":63912,"componentType":5126,"count":20,"type":"VEC3"},{"bufferView":2,"byteOffset":39780,"componentType":5123,"count":54,"type":"SCALAR"},{"bufferView":0,"byteOffset":64152,"componentType":5126,"count":4,"type":"VEC3","min":[0.00774999987,0.00349999988,0.00249999994],"max":[0.00774999987,0.00649999967,0.00449999981]},{"bufferView":1,"byteOffset":64152,"componentType":5126,"count":4,"type":"VEC3"},{"bufferView":2,"byteOffset":39888,"componentType":5123,"count":6,"type":"SCALAR"},{"bufferView":0,"byteOffset":64200,"componentType":5126,"count":44,"type":"VEC3","min":[0,0.00349999988,0],"max":[0.00899999961,0.00349999988,0.00699999975]},{"bufferView":1,"byteOffset":64200,"componentType":5126,"count":44,"type":"VEC3"},{"bufferView":2,"byteOffset":39900,"componentType":5123,"count":132,"type":"SCALAR"},{"bufferView":0,"byteOffset":64728,"componentType":5126,"count":4,"type":"VEC3","min":[0,0.00349999988,0.00699999975],"max":[0.00899999961,0.00649999967,0.00699999975]},{"bufferView":1,"byteOffset":64728,"componentType":5126,"count":4,"type":"VEC3"},{"bufferView":2,"byteOffset":40164,"componentType":5123,"count":6,"type":"SCALAR"},{"bufferView":0,"byteOffset":64776,"componentType":5126,"count":44,"type":"VEC3","min":[0,0.00649999967,0],"max":[0.00899999961,0.00649999967,0.00699999975]},{"bufferView":1,"byteOffset":64776,"componentType":5126,"count":44,"type":"VEC3"},{"bufferView":2,"byteOffset":40176,"componentType":5123,"count":132,"type":"SCALAR"},{"bufferView":0,"byteOffset":65304,"componentType":5126,"count":4,"type":"VEC3","min":[0,0.00349999988,0],"max":[0.00899999961,0.00649999967,0]},{"bufferView":1,"byteOffset":65304,"componentType":5126,"count":4,"type":"VEC3"},{"bufferView":2,"byteOffset":40440,"componentType":5123,"count":6,"type":"SCALAR"},{"bufferView":0,"byteOffset":65352,"componentType":5126,"count":4,"type":"VEC3","min":[0.00899999961,0.00349999988,0],"max":[0.00899999961,0.00649999967,0.00699999975]},{"bufferView":1,"byteOffset":65352,"componentType":5126,"count":4,"type":"VEC3"},{"bufferView":2,"byteOffset":40452,"componentType":5123,"count":6,"type":"SCALAR"},{"bufferView":0,"byteOffset":65400,"componentType":5126,"count":4,"type":"VEC3","min":[0,0.00349999988,0],"max":[0,0.00649999967,0.00699999975]},{"bufferView":1,"byteOffset":65400,"componentType":5126,"count":4,"type":"VEC3"},{"bufferView":2,"byteOffset":40464,"componentType":5123,"count":6,"type":"SCALAR"},{"bufferView":0,"byteOffset":65448,"componentType":5126,"count":38,"type":"VEC3","min":[0.00250000041,0.00274999999,0],"max":[0.0130000003,0.00274999999,0.00699999975]},{"bufferView":1,"byteOffset":65448,"componentType":5126,"count":38,"type":"VEC3"},{"bufferView":2,"byteOffset":40476,"componentType":5123,"count":114,"type":"SCALAR"},{"bufferView":0,"byteOffset":65904,"componentType":5126,"count":4,"type":"VEC3","min":[0.00250000041,0.000750000007,0],"max":[0.00250000041,0.00274999999,0.00699999975]},{"bufferView":1,"byteOffset":65904,"componentType":5126,"count":4,"type":"VEC3"},{"bufferView":2,"byteOffset":40704,"componentType":5123,"count":6,"type":"SCALAR"},{"bufferView":0,"byteOffset":65952,"componentType":5126,"count":4,"type":"VEC3","min":[0.00250000041,0.000750000007,0.00699999975],"max":[0.0130000003,0.00274999999,0.00699999975]},{"bufferView":1,"byteOffset":65952,"componentType":5126,"count":4,"type":"VEC3"},{"bufferView":2,"byteOffset":40716,"componentType":5123,"count":6,"type":"SCALAR"},{"bufferView":0,"byteOffset":66000,"componentType":5126,"count":4,"type":"VEC3","min":[0.0130000003,0.000750000007,0],"max":[0.0130000003,0.00274999999,0.00699999975]},{"bufferView":1,"byteOffset":66000,"componentType":5126,"count":4,"type":"VEC3"},{"bufferView":2,"byteOffset":40728,"componentType":5123,"count":6,"type":"SCALAR"},{"bufferView":0,"byteOffset":66048,"componentType":5126,"count":4,"type":"VEC3","min":[0.00250000041,0.000750000007,0],"max":[0.0130000003,0.00274999999,0]},{"bufferView":1,"byteOffset":66048,"componentType":5126,"count":4,"type":"VEC3"},{"bufferView":2,"byteOffset":40740,"componentType":5123,"count":6,"type":"SCALAR"},{"bufferView":0,"byteOffset":66096,"componentType":5126,"count":4,"type":"VEC3","min":[0.00250000041,0.000750000007,0],"max":[0.0130000003,0.000750000007,0.00699999975]},{"bufferView":1,"byteOffset":66096,"componentType":5126,"count":4,"type":"VEC3"},{"bufferView":2,"byteOffset":40752,"componentType":5123,"count":6,"type":"SCALAR"},{"bufferView":0,"byteOffset":66144,"componentType":5126,"count":38,"type":"VEC3","min":[0.00250000041,0.00725000026,0],"max":[0.0130000003,0.00725000026,0.00699999975]},{"bufferView":1,"byteOffset":66144,"componentType":5126,"count":38,"type":"VEC3"},{"bufferView":2,"byteOffset":40764,"componentType":5123,"count":114,"type":"SCALAR"},{"bufferView":0,"byteOffset":66600,"componentType":5126,"count":4,"type":"VEC3","min":[0.00250000041,0.00725000026,0],"max":[0.00250000041,0.00925000012,0.00699999975]},{"bufferView":1,"byteOffset":66600,"componentType":5126,"count":4,"type":"VEC3"},{"bufferView":2,"byteOffset":40992,"componentType":5123,"count":6,"type":"SCALAR"},{"bufferView":0,"byteOffset":66648,"componentType":5126,"count":4,"type":"VEC3","min":[0.00250000041,0.00725000026,0],"max":[0.0130000003,0.00925000012,0]},{"bufferView":1,"byteOffset":66648,"componentType":5126,"count":4,"type":"VEC3"},{"bufferView":2,"byteOffset":41004,"componentType":5123,"count":6,"type":"SCALAR"},{"bufferView":0,"byteOffset":66696,"componentType":5126,"count":4,"type":"VEC3","min":[0.0130000003,0.00725000026,0],"max":[0.0130000003,0.00925000012,0.00699999975]},{"bufferView":1,"byteOffset":66696,"componentType":5126,"count":4,"type":"VEC3"},{"bufferView":2,"byteOffset":41016,"componentType":5123,"count":6,"type":"SCALAR"},{"bufferView":0,"byteOffset":66744,"componentType":5126,"count":4,"type":"VEC3","min":[0.00250000041,0.00725000026,0.00699999975],"max":[0.0130000003,0.00925000012,0.00699999975]},{"bufferView":1,"byteOffset":66744,"componentType":5126,"count":4,"type":"VEC3"},{"bufferView":2,"byteOffset":41028,"componentType":5123,"count":6,"type":"SCALAR"},{"bufferView":0,"byteOffset":66792,"componentType":5126,"count":4,"type":"VEC3","min":[0.00250000041,0.00925000012,0],"max":[0.0130000003,0.00925000012,0.00699999975]},{"bufferView":1,"byteOffset":66792,"componentType":5126,"count":4,"type":"VEC3"},{"bufferView":2,"byteOffset":41040,"componentType":5123,"count":6,"type":"SCALAR"},{"bufferView":0,"byteOffset":66840,"componentType":5126,"count":68,"type":"VEC3","min":[0.00333500025,0.00274999999,0.0018421025],"max":[0.00666500023,0.00725000026,0.00515789725]},{"bufferView":1,"byteOffset":66840,"componentType":5126,"count":68,"type":"VEC3"},{"bufferView":2,"byteOffset":41052,"componentType":5123,"count":204,"type":"SCALAR"},{"bufferView":0,"byteOffset":67656,"componentType":5126,"count":20,"type":"VEC3","min":[0.0395000018,0.00349999988,0.00449999981],"max":[0.0407500006,0.00649999967,0.00575000001]},{"bufferView":1,"byteOffset":67656,"componentType":5126,"count":20,"type":"VEC3"},{"bufferView":2,"byteOffset":41460,"componentType":5123,"count":54,"type":"SCALAR"},{"bufferView":0,"byteOffset":67896,"componentType":5126,"count":4,"type":"VEC3","min":[0.0355000012,0.00349999988,0.00575000001],"max":[0.0395000018,0.00649999967,0.00575000001]},{"bufferView":1,"byteOffset":67896,"componentType":5126,"count":4,"type":"VEC3"},{"bufferView":2,"byteOffset":41568,"componentType":5123,"count":6,"type":"SCALAR"},{"bufferView":0,"byteOffset":67944,"componentType":5126,"count":20,"type":"VEC3","min":[0.0342499986,0.00349999988,0.00125000009],"max":[0.0355000012,0.00649999967,0.00250000018]},{"bufferView":1,"byteOffset":67944,"componentType":5126,"count":20,"type":"VEC3"},{"bufferView":2,"byteOffset":41580,"componentType":5123,"count":54,"type":"SCALAR"},{"bufferView":0,"byteOffset":68184,"componentType":5126,"count":4,"type":"VEC3","min":[0.0355000012,0.00349999988,0.00125000009],"max":[0.0395000018,0.00649999967,0.00125000009]},{"bufferView":1,"byteOffset":68184,"componentType":5126,"count":4,"type":"VEC3"},{"bufferView":2,"byteOffset":41688,"componentType":5123,"count":6,"type":"SCALAR"},{"bufferView":0,"byteOffset":68232,"componentType":5126,"count":20,"type":"VEC3","min":[0.0395000018,0.00349999988,0.00125000009],"max":[0.0407500006,0.00649999967,0.00250000018]},{"bufferView":1,"byteOffset":68232,"componentType":5126,"count":20,"type":"VEC3"},{"bufferView":2,"byteOffset":41700,"componentType":5123,"count":54,"type":"SCALAR"},{"bufferView":0,"byteOffset":68472,"componentType":5126,"count":4,"type":"VEC3","min":[0.0407500006,0.00349999988,0.00250000018],"max":[0.0407500006,0.00649999967,0.00449999981]},{"bufferView":1,"byteOffset":68472,"componentType":5126,"count":4,"type":"VEC3"},{"bufferView":2,"byteOffset":41808,"componentType":5123,"count":6,"type":"SCALAR"},{"bufferView":0,"byteOffset":68520,"componentType":5126,"count":20,"type":"VEC3","min":[0.0342499986,0.00349999988,0.00449999981],"max":[0.0355000012,0.00649999967,0.00575000001]},{"bufferView":1,"byteOffset":68520,"componentType":5126,"count":20,"type":"VEC3"},{"bufferView":2,"byteOffset":41820,"componentType":5123,"count":54,"type":"SCALAR"},{"bufferView":0,"byteOffset":68760,"componentType":5126,"count":4,"type":"VEC3","min":[0.0342499986,0.00349999988,0.00250000018],"max":[0.0342499986,0.00649999967,0.00449999981]},{"bufferView":1,"byteOffset":68760,"componentType":5126,"count":4,"type":"VEC3"},{"bufferView":2,"byteOffset":41928,"componentType":5123,"count":6,"type":"SCALAR"},{"bufferView":0,"byteOffset":68808,"componentType":5126,"count":44,"type":"VEC3","min":[0.0329999998,0.00349999988,1.19000004e-10],"max":[0.0419999994,0.00349999988,0.00700000022]},{"bufferView":1,"byteOffset":68808,"componentType":5126,"count":44,"type":"VEC3"},{"bufferView":2,"byteOffset":41940,"componentType":5123,"count":132,"type":"SCALAR"},{"bufferView":0,"byteOffset":69336,"componentType":5126,"count":4,"type":"VEC3","min":[0.0329999998,0.00349999988,1.19000004e-10],"max":[0.0419999994,0.00649999967,1.19000004e-10]},{"bufferView":1,"byteOffset":69336,"componentType":5126,"count":4,"type":"VEC3"},{"bufferView":2,"byteOffset":42204,"componentType":5123,"count":6,"type":"SCALAR"},{"bufferView":0,"byteOffset":69384,"componentType":5126,"count":44,"type":"VEC3","min":[0.0329999998,0.00649999967,1.19000004e-10],"max":[0.0419999994,0.00649999967,0.00700000022]},{"bufferView":1,"byteOffset":69384,"componentType":5126,"count":44,"type":"VEC3"},{"bufferView":2,"byteOffset":42216,"componentType":5123,"count":132,"type":"SCALAR"},{"bufferView":0,"byteOffset":69912,"componentType":5126,"count":4,"type":"VEC3","min":[0.0329999998,0.00349999988,0.00700000022],"max":[0.0419999994,0.00649999967,0.00700000022]},{"bufferView":1,"byteOffset":69912,"componentType":5126,"count":4,"type":"VEC3"},{"bufferView":2,"byteOffset":42480,"componentType":5123,"count":6,"type":"SCALAR"},{"bufferView":0,"byteOffset":69960,"componentType":5126,"count":4,"type":"VEC3","min":[0.0329999998,0.00349999988,1.19000004e-10],"max":[0.0329999998,0.00649999967,0.00700000022]},{"bufferView":1,"byteOffset":69960,"componentType":5126,"count":4,"type":"VEC3"},{"bufferView":2,"byteOffset":42492,"componentType":5123,"count":6,"type":"SCALAR"},{"bufferView":0,"byteOffset":70008,"componentType":5126,"count":4,"type":"VEC3","min":[0.0419999994,0.00349999988,1.19000004e-10],"max":[0.0419999994,0.00649999967,0.00700000022]},{"bufferView":1,"byteOffset":70008,"componentType":5126,"count":4,"type":"VEC3"},{"bufferView":2,"byteOffset":42504,"componentType":5123,"count":6,"type":"SCALAR"},{"bufferView":0,"byteOffset":70056,"componentType":5126,"count":38,"type":"VEC3","min":[0.0289999992,0.00274999999,1.19000004e-10],"max":[0.0394999981,0.00274999999,0.00700000022]},{"bufferView":1,"byteOffset":70056,"componentType":5126,"count":38,"type":"VEC3"},{"bufferView":2,"byteOffset":42516,"componentType":5123,"count":114,"type":"SCALAR"},{"bufferView":0,"byteOffset":70512,"componentType":5126,"count":4,"type":"VEC3","min":[0.0394999981,0.000750000007,1.19000004e-10],"max":[0.0394999981,0.00274999999,0.00700000022]},{"bufferView":1,"byteOffset":70512,"componentType":5126,"count":4,"type":"VEC3"},{"bufferView":2,"byteOffset":42744,"componentType":5123,"count":6,"type":"SCALAR"},{"bufferView":0,"byteOffset":70560,"componentType":5126,"count":4,"type":"VEC3","min":[0.0289999992,0.000750000007,1.19000004e-10],"max":[0.0394999981,0.00274999999,1.19000004e-10]},{"bufferView":1,"byteOffset":70560,"componentType":5126,"count":4,"type":"VEC3"},{"bufferView":2,"byteOffset":42756,"componentType":5123,"count":6,"type":"SCALAR"},{"bufferView":0,"byteOffset":70608,"componentType":5126,"count":4,"type":"VEC3","min":[0.0289999992,0.000750000007,1.19000004e-10],"max":[0.0289999992,0.00274999999,0.00700000022]},{"bufferView":1,"byteOffset":70608,"componentType":5126,"count":4,"type":"VEC3"},{"bufferView":2,"byteOffset":42768,"componentType":5123,"count":6,"type":"SCALAR"},{"bufferView":0,"byteOffset":70656,"componentType":5126,"count":4,"type":"VEC3","min":[0.0289999992,0.000750000007,0.00700000022],"max":[0.0394999981,0.00274999999,0.00700000022]},{"bufferView":1,"byteOffset":70656,"componentType":5126,"count":4,"type":"VEC3"},{"bufferView":2,"byteOffset":42780,"componentType":5123,"count":6,"type":"SCALAR"},{"bufferView":0,"byteOffset":70704,"componentType":5126,"count":4,"type":"VEC3","min":[0.0289999992,0.000750000007,1.19000004e-10],"max":[0.0394999981,0.000750000007,0.00700000022]},{"bufferView":1,"byteOffset":70704,"componentType":5126,"count":4,"type":"VEC3"},{"bufferView":2,"byteOffset":42792,"componentType":5123,"count":6,"type":"SCALAR"},{"bufferView":0,"byteOffset":70752,"componentType":5126,"count":38,"type":"VEC3","min":[0.0289999992,0.00725000026,1.19000004e-10],"max":[0.0394999981,0.00725000026,0.00700000022]},{"bufferView":1,"byteOffset":70752,"componentType":5126,"count":38,"type":"VEC3"},{"bufferView":2,"byteOffset":42804,"componentType":5123,"count":114,"type":"SCALAR"},{"bufferView":0,"byteOffset":71208,"componentType":5126,"count":4,"type":"VEC3","min":[0.0394999981,0.00725000026,1.19000004e-10],"max":[0.0394999981,0.00925000012,0.00700000022]},{"bufferView":1,"byteOffset":71208,"componentType":5126,"count":4,"type":"VEC3"},{"bufferView":2,"byteOffset":43032,"componentType":5123,"count":6,"type":"SCALAR"},{"bufferView":0,"byteOffset":71256,"componentType":5126,"count":4,"type":"VEC3","min":[0.0289999992,0.00725000026,0.00700000022],"max":[0.0394999981,0.00925000012,0.00700000022]},{"bufferView":1,"byteOffset":71256,"componentType":5126,"count":4,"type":"VEC3"},{"bufferView":2,"byteOffset":43044,"componentType":5123,"count":6,"type":"SCALAR"},{"bufferView":0,"byteOffset":71304,"componentType":5126,"count":4,"type":"VEC3","min":[0.0289999992,0.00725000026,1.19000004e-10],"max":[0.0289999992,0.00925000012,0.00700000022]},{"bufferView":1,"byteOffset":71304,"componentType":5126,"count":4,"type":"VEC3"},{"bufferView":2,"byteOffset":43056,"componentType":5123,"count":6,"type":"SCALAR"},{"bufferView":0,"byteOffset":71352,"componentType":5126,"count":4,"type":"VEC3","min":[0.0289999992,0.00725000026,1.19000004e-10],"max":[0.0394999981,0.00925000012,1.19000004e-10]},{"bufferView":1,"byteOffset":71352,"componentType":5126,"count":4,"type":"VEC3"},{"bufferView":2,"byteOffset":43068,"componentType":5123,"count":6,"type":"SCALAR"},{"bufferView":0,"byteOffset":71400,"componentType":5126,"count":4,"type":"VEC3","min":[0.0289999992,0.00925000012,1.19000004e-10],"max":[0.0394999981,0.00925000012,0.00700000022]},{"bufferView":1,"byteOffset":71400,"componentType":5126,"count":4,"type":"VEC3"},{"bufferView":2,"byteOffset":43080,"componentType":5123,"count":6,"type":"SCALAR"},{"bufferView":0,"byteOffset":71448,"componentType":5126,"count":68,"type":"VEC3","min":[0.0353350006,0.00274999999,0.0018421025],"max":[0.0386650003,0.00725000026,0.00515789725]},{"bufferView":1,"byteOffset":71448,"componentType":5126,"count":68,"type":"VEC3"},{"bufferView":2,"byteOffset":43092,"componentType":5123,"count":204,"type":"SCALAR"},{"bufferView":0,"byteOffset":72264,"componentType":5126,"count":69,"type":"VEC3","min":[0.0434999987,0.00850000046,0.00499999989],"max":[0.0484999977,0.0135000004,0.011467427]},{"bufferView":1,"byteOffset":72264,"componentType":5126,"count":69,"type":"VEC3"},{"bufferView":2,"byteOffset":43500,"componentType":5123,"count":207,"type":"SCALAR"},{"bufferView":0,"byteOffset":73092,"componentType":5126,"count":28,"type":"VEC3","min":[0.0434999987,0.00850000046,0.00499999989],"max":[0.0484999977,0.0135000004,0.00499999989]},{"bufferView":1,"byteOffset":73092,"componentType":5126,"count":28,"type":"VEC3"},{"bufferView":2,"byteOffset":43914,"componentType":5123,"count":78,"type":"SCALAR"},{"bufferView":0,"byteOffset":73428,"componentType":5126,"count":69,"type":"VEC3","min":[0.0434999987,-0.00350000034,0.00499999989],"max":[0.0484999977,0.00149999978,0.011467427]},{"bufferView":1,"byteOffset":73428,"componentType":5126,"count":69,"type":"VEC3"},{"bufferView":2,"byteOffset":44070,"componentType":5123,"count":207,"type":"SCALAR"},{"bufferView":0,"byteOffset":74256,"componentType":5126,"count":28,"type":"VEC3","min":[0.0434999987,-0.00350000034,0.00499999989],"max":[0.0484999977,0.00149999978,0.00499999989]},{"bufferView":1,"byteOffset":74256,"componentType":5126,"count":28,"type":"VEC3"},{"bufferView":2,"byteOffset":44484,"componentType":5123,"count":78,"type":"SCALAR"},{"bufferView":0,"byteOffset":74592,"componentType":5126,"count":28,"type":"VEC3","min":[0.0434999987,-0.00699999975,0],"max":[0.0453848168,-0.00100000016,0.0103923045]},{"bufferView":1,"byteOffset":74592,"componentType":5126,"count":28,"type":"VEC3"},{"bufferView":2,"byteOffset":44640,"componentType":5123,"count":78,"type":"SCALAR"},{"bufferView":0,"byteOffset":74928,"componentType":5126,"count":28,"type":"VEC3","min":[0.0434999987,0.0109999999,0],"max":[0.0453848168,0.0170000009,0.0103923045]},{"bufferView":1,"byteOffset":74928,"componentType":5126,"count":28,"type":"VEC3"},{"bufferView":2,"byteOffset":44796,"componentType":5123,"count":78,"type":"SCALAR"},{"bufferView":0,"byteOffset":75264,"componentType":5126,"count":52,"type":"VEC3","min":[0.0500000007,-0.00025000007,0.00725000026],"max":[0.0532914959,0.0022499999,0.0097500002]},{"bufferView":1,"byteOffset":75264,"componentType":5126,"count":52,"type":"VEC3"},{"bufferView":2,"byteOffset":44952,"componentType":5123,"count":156,"type":"SCALAR"},{"bufferView":0,"byteOffset":75888,"componentType":5126,"count":20,"type":"VEC3","min":[0.0500000007,-0.00025000007,0.00725000026],"max":[0.0500000007,0.0022499999,0.0097500002]},{"bufferView":1,"byteOffset":75888,"componentType":5126,"count":20,"type":"VEC3"},{"bufferView":2,"byteOffset":45264,"componentType":5123,"count":54,"type":"SCALAR"},{"bufferView":0,"byteOffset":76128,"componentType":5126,"count":52,"type":"VEC3","min":[0.0500000007,0.00774999987,0.00725000026],"max":[0.0532914959,0.0102499994,0.0097500002]},{"bufferView":1,"byteOffset":76128,"componentType":5126,"count":52,"type":"VEC3"},{"bufferView":2,"byteOffset":45372,"componentType":5123,"count":156,"type":"SCALAR"},{"bufferView":0,"byteOffset":76752,"componentType":5126,"count":20,"type":"VEC3","min":[0.0500000007,0.00774999987,0.00725000026],"max":[0.0500000007,0.0102499994,0.0097500002]},{"bufferView":1,"byteOffset":76752,"componentType":5126,"count":20,"type":"VEC3"},{"bufferView":2,"byteOffset":45684,"componentType":5123,"count":54,"type":"SCALAR"},{"bufferView":0,"byteOffset":76992,"componentType":5126,"count":333,"type":"VEC3","min":[0.0453848168,-0.00699999975,0],"max":[0.0529913008,0.0170000009,0.0120000001]},{"bufferView":1,"byteOffset":76992,"componentType":5126,"count":333,"type":"VEC3"},{"bufferView":2,"byteOffset":45792,"componentType":5123,"count":1512,"type":"SCALAR"},{"bufferView":0,"byteOffset":80988,"componentType":5126,"count":30,"type":"VEC3","min":[0.0419999994,-0.00549999997,0],"max":[0.0419999994,0.0155000007,0.0104846014]},{"bufferView":1,"byteOffset":80988,"componentType":5126,"count":30,"type":"VEC3"},{"bufferView":2,"byteOffset":48816,"componentType":5123,"count":84,"type":"SCALAR"},{"bufferView":0,"byteOffset":81348,"componentType":5126,"count":241,"type":"VEC3","min":[0.0615000017,0.00407614373,0],"max":[0.0619998872,0.00592385652,0.000909821189]},{"bufferView":1,"byteOffset":81348,"componentType":5126,"count":241,"type":"VEC3"},{"bufferView":2,"byteOffset":48984,"componentType":5123,"count":249,"type":"SCALAR"},{"bufferView":0,"byteOffset":84240,"componentType":5126,"count":426,"type":"VEC3","min":[0.0529913008,-0.00349164195,0],"max":[0.0617652275,0.0134916417,0.00849164184]},{"bufferView":1,"byteOffset":84240,"componentType":5126,"count":426,"type":"VEC3"},{"bufferView":2,"byteOffset":49482,"componentType":5123,"count":2367,"type":"SCALAR"},{"bufferView":0,"byteOffset":89352,"componentType":5126,"count":33,"type":"VEC3","min":[0.0434999987,-0.00100000016,0.0103923045],"max":[0.0453848168,0.0109999999,0.0120000001]},{"bufferView":1,"byteOffset":89352,"componentType":5126,"count":33,"type":"VEC3"},{"bufferView":2,"byteOffset":54216,"componentType":5123,"count":93,"type":"SCALAR"},{"bufferView":0,"byteOffset":89748,"componentType":5126,"count":219,"type":"VEC3","min":[0.0419999994,-0.00699999975,0],"max":[0.0434999987,0.0170000009,0.0119864084]},{"bufferView":1,"byteOffset":89748,"componentType":5126,"count":219,"type":"VEC3"},{"bufferView":2,"byteOffset":54402,"componentType":5123,"count":1086,"type":"SCALAR"},{"bufferView":0,"byteOffset":92376,"componentType":5126,"count":55,"type":"VEC3","min":[0.0419999994,-0.00699999975,0],"max":[0.0619943254,0.0170000009,0]},{"bufferView":1,"byteOffset":92376,"componentType":5126,"count":55,"type":"VEC3"},{"bufferView":2,"byteOffset":56574,"componentType":5123,"count":159,"type":"SCALAR"},{"bufferView":0,"byteOffset":93036,"componentType":5126,"count":54,"type":"VEC3","min":[0.014516904,0.0120000001,0.00900422968],"max":[0.0195000004,0.0170000009,0.0139957704]},{"bufferView":1,"byteOffset":93036,"componentType":5126,"count":54,"type":"VEC3"},{"bufferView":2,"byteOffset":56892,"componentType":5123,"count":162,"type":"SCALAR"},{"bufferView":0,"byteOffset":93684,"componentType":5126,"count":27,"type":"VEC3","min":[0.014516904,0.0120000001,0.00900422968],"max":[0.0195000004,0.0120000001,0.0139957704]},{"bufferView":1,"byteOffset":93684,"componentType":5126,"count":27,"type":"VEC3"},{"bufferView":2,"byteOffset":57216,"componentType":5123,"count":75,"type":"SCALAR"},{"bufferView":0,"byteOffset":94008,"componentType":5126,"count":54,"type":"VEC3","min":[0.0145000005,-0.00699999975,0.00900422968],"max":[0.0194830969,-0.00200000009,0.0139957704]},{"bufferView":1,"byteOffset":94008,"componentType":5126,"count":54,"type":"VEC3"},{"bufferView":2,"byteOffset":57366,"componentType":5123,"count":162,"type":"SCALAR"},{"bufferView":0,"byteOffset":94656,"componentType":5126,"count":27,"type":"VEC3","min":[0.0145000005,-0.00200000009,0.00900422968],"max":[0.0194830969,-0.00200000009,0.0139957704]},{"bufferView":1,"byteOffset":94656,"componentType":5126,"count":27,"type":"VEC3"},{"bufferView":2,"byteOffset":57690,"componentType":5123,"count":75,"type":"SCALAR"},{"bufferView":0,"byteOffset":94980,"componentType":5126,"count":31,"type":"VEC3","min":[0.029000001,-0.00699999975,0],"max":[0.029000001,0.0170000009,0.0119999992]},{"bufferView":1,"byteOffset":94980,"componentType":5126,"count":31,"type":"VEC3"},{"bufferView":2,"byteOffset":57840,"componentType":5123,"count":87,"type":"SCALAR"},{"bufferView":0,"byteOffset":95352,"componentType":5126,"count":479,"type":"VEC3","min":[0.0130000003,-0.00699999975,0],"max":[0.029000001,0.0170000009,0.0199999996]},{"bufferView":1,"byteOffset":95352,"componentType":5126,"count":479,"type":"VEC3"},{"bufferView":2,"byteOffset":58014,"componentType":5123,"count":2628,"type":"SCALAR"},{"bufferView":0,"byteOffset":101100,"componentType":5126,"count":46,"type":"VEC3","min":[0.0130000003,0.0170000009,0],"max":[0.029000001,0.0170000009,0.0160000008]},{"bufferView":1,"byteOffset":101100,"componentType":5126,"count":46,"type":"VEC3"},{"bufferView":2,"byteOffset":63270,"componentType":5123,"count":138,"type":"SCALAR"},{"bufferView":0,"byteOffset":101652,"componentType":5126,"count":46,"type":"VEC3","min":[0.0130000003,-0.00699999975,0],"max":[0.029000001,-0.00699999975,0.0160000008]},{"bufferView":1,"byteOffset":101652,"componentType":5126,"count":46,"type":"VEC3"},{"bufferView":2,"byteOffset":63546,"componentType":5123,"count":138,"type":"SCALAR"},{"bufferView":0,"byteOffset":102204,"componentType":5126,"count":4,"type":"VEC3","min":[0.0130000003,-0.00699999975,0],"max":[0.029000001,0.0170000009,0]},{"bufferView":1,"byteOffset":102204,"componentType":5126,"count":4,"type":"VEC3"},{"bufferView":2,"byteOffset":63822,"componentType":5123,"count":6,"type":"SCALAR"},{"bufferView":0,"byteOffset":102252,"componentType":5126,"count":19,"type":"VEC3","min":[0.0130000003,-0.00699999975,0],"max":[0.0130000003,0.0170000009,0.0199999996]},{"bufferView":1,"byteOffset":102252,"componentType":5126,"count":19,"type":"VEC3"},{"bufferView":2,"byteOffset":63834,"componentType":5123,"count":51,"type":"SCALAR"},{"bufferView":0,"byteOffset":102480,"componentType":5126,"count":59,"type":"VEC3","min":[-0.0199436713,0.00249999994,0.00150000025],"max":[-0.0129999993,0.00749999983,0.00649999967]},{"bufferView":1,"byteOffset":102480,"componentType":5126,"count":59,"type":"VEC3"},{"bufferView":2,"byteOffset":63936,"componentType":5123,"count":177,"type":"SCALAR"},{"bufferView":0,"byteOffset":103188,"componentType":5126,"count":27,"type":"VEC3","min":[-0.0129999993,0.00249999994,0.00150422961],"max":[-0.0129999993,0.00748309633,0.00649577007]},{"bufferView":1,"byteOffset":103188,"componentType":5126,"count":27,"type":"VEC3"},{"bufferView":2,"byteOffset":64290,"componentType":5123,"count":75,"type":"SCALAR"},{"bufferView":0,"byteOffset":103512,"componentType":5126,"count":54,"type":"VEC3","min":[-0.0064830957,0.0120000001,0.00900422968],"max":[-0.00150000001,0.0170000009,0.0139957704]},{"bufferView":1,"byteOffset":103512,"componentType":5126,"count":54,"type":"VEC3"},{"bufferView":2,"byteOffset":64440,"componentType":5123,"count":162,"type":"SCALAR"},{"bufferView":0,"byteOffset":104160,"componentType":5126,"count":27,"type":"VEC3","min":[-0.0064830957,0.0120000001,0.00900422968],"max":[-0.00150000001,0.0120000001,0.0139957704]},{"bufferView":1,"byteOffset":104160,"componentType":5126,"count":27,"type":"VEC3"},{"bufferView":2,"byteOffset":64764,"componentType":5123,"count":75,"type":"SCALAR"},{"bufferView":0,"byteOffset":104484,"componentType":5126,"count":54,"type":"VEC3","min":[-0.00649999967,-0.00699999975,0.00900422968],"max":[-0.0015169041,-0.00200000009,0.0139957704]},{"bufferView":1,"byteOffset":104484,"componentType":5126,"count":54,"type":"VEC3"},{"bufferView":2,"byteOffset":64914,"componentType":5123,"count":162,"type":"SCALAR"},{"bufferView":0,"byteOffset":105132,"componentType":5126,"count":27,"type":"VEC3","min":[-0.00649999967,-0.00200000009,0.00900422968],"max":[-0.0015169041,-0.00200000009,0.0139957704]},{"bufferView":1,"byteOffset":105132,"componentType":5126,"count":27,"type":"VEC3"},{"bufferView":2,"byteOffset":65238,"componentType":5123,"count":75,"type":"SCALAR"},{"bufferView":0,"byteOffset":105456,"componentType":5126,"count":46,"type":"VEC3","min":[-0.0160000008,-0.00699999975,0],"max":[0,-0.00699999975,0.0160000008]},{"bufferView":1,"byteOffset":105456,"componentType":5126,"count":46,"type":"VEC3"},{"bufferView":2,"byteOffset":65388,"componentType":5123,"count":138,"type":"SCALAR"},{"bufferView":0,"byteOffset":106008,"componentType":5126,"count":46,"type":"VEC3","min":[-0.0160000008,0.0170000009,0],"max":[0,0.0170000009,0.0160000008]},{"bufferView":1,"byteOffset":106008,"componentType":5126,"count":46,"type":"VEC3"},{"bufferView":2,"byteOffset":65664,"componentType":5123,"count":138,"type":"SCALAR"},{"bufferView":0,"byteOffset":106560,"componentType":5126,"count":19,"type":"VEC3","min":[-0.0199999996,-0.00699999975,0],"max":[0,0.0170000009,0]},{"bufferView":1,"byteOffset":106560,"componentType":5126,"count":19,"type":"VEC3"},{"bufferView":2,"byteOffset":65940,"componentType":5123,"count":51,"type":"SCALAR"},{"bufferView":0,"byteOffset":106788,"componentType":5126,"count":386,"type":"VEC3","min":[-0.0199999996,-0.00699999975,0],"max":[0,0.0170000009,0.0199999996]},{"bufferView":1,"byteOffset":106788,"componentType":5126,"count":386,"type":"VEC3"},{"bufferView":2,"byteOffset":66042,"componentType":5123,"count":2022,"type":"SCALAR"},{"bufferView":0,"byteOffset":111420,"componentType":5126,"count":19,"type":"VEC3","min":[0,-0.00699999975,0],"max":[0,0.0170000009,0.0199999996]},{"bufferView":1,"byteOffset":111420,"componentType":5126,"count":19,"type":"VEC3"},{"bufferView":2,"byteOffset":70086,"componentType":5123,"count":51,"type":"SCALAR"},{"bufferView":0,"byteOffset":111648,"componentType":5126,"count":100,"type":"VEC3","min":[0.0437499993,0.00875000004,0.00600000005],"max":[0.0482500009,0.0132500008,0.0108873453]},{"bufferView":1,"byteOffset":111648,"componentType":5126,"count":100,"type":"VEC3"},{"bufferView":2,"byteOffset":70188,"componentType":5123,"count":300,"type":"SCALAR"},{"bufferView":0,"byteOffset":112848,"componentType":5126,"count":36,"type":"VEC3","min":[0.0437499993,0.00875000004,0.00600000005],"max":[0.0482500009,0.0132500008,0.00600000005]},{"bufferView":1,"byteOffset":112848,"componentType":5126,"count":36,"type":"VEC3"},{"bufferView":2,"byteOffset":70788,"componentType":5123,"count":102,"type":"SCALAR"},{"bufferView":0,"byteOffset":113280,"componentType":5126,"count":50,"type":"VEC3","min":[0.0462500006,0.00863110833,0.00858441554],"max":[0.0462500006,0.0177316144,0.0175543744]},{"bufferView":1,"byteOffset":113280,"componentType":5126,"count":50,"type":"VEC3"},{"bufferView":2,"byteOffset":70992,"componentType":5123,"count":144,"type":"SCALAR"},{"bufferView":0,"byteOffset":113880,"componentType":5126,"count":79,"type":"VEC3","min":[0.0437499993,0.00851197075,0.00794894248],"max":[0.0487499982,0.0135048348,0.0109641142]},{"bufferView":1,"byteOffset":113880,"componentType":5126,"count":79,"type":"VEC3"},{"bufferView":2,"byteOffset":71280,"componentType":5123,"count":234,"type":"SCALAR"},{"bufferView":0,"byteOffset":114828,"componentType":5126,"count":24,"type":"VEC3","min":[0.0462500006,0.00881442614,0.00858441554],"max":[0.0487499982,0.0142738279,0.0117165102]},{"bufferView":1,"byteOffset":114828,"componentType":5126,"count":24,"type":"VEC3"},{"bufferView":2,"byteOffset":71748,"componentType":5123,"count":66,"type":"SCALAR"},{"bufferView":0,"byteOffset":115116,"componentType":5126,"count":80,"type":"VEC3","min":[0.0462500006,0.00863110833,0.00858441554],"max":[0.0487499982,0.0177316144,0.0175543744]},{"bufferView":1,"byteOffset":115116,"componentType":5126,"count":80,"type":"VEC3"},{"bufferView":2,"byteOffset":71880,"componentType":5123,"count":234,"type":"SCALAR"},{"bufferView":0,"byteOffset":116076,"componentType":5126,"count":94,"type":"VEC3","min":[0.0437499993,0.00793979224,0.00794894248],"max":[0.0487499982,0.018834319,0.0188430082]},{"bufferView":1,"byteOffset":116076,"componentType":5126,"count":94,"type":"VEC3"},{"bufferView":2,"byteOffset":72348,"componentType":5123,"count":276,"type":"SCALAR"},{"bufferView":0,"byteOffset":117204,"componentType":5126,"count":103,"type":"VEC3","min":[0.0487499982,0.00793979224,0.00794894248],"max":[0.0487499982,0.018834319,0.0188430082]},{"bufferView":1,"byteOffset":117204,"componentType":5126,"count":103,"type":"VEC3"},{"bufferView":2,"byteOffset":72900,"componentType":5123,"count":309,"type":"SCALAR"},{"bufferView":0,"byteOffset":118440,"componentType":5126,"count":53,"type":"VEC3","min":[0.0437499993,0.00793979224,0.00794894248],"max":[0.0437499993,0.018834319,0.0188430082]},{"bufferView":1,"byteOffset":118440,"componentType":5126,"count":53,"type":"VEC3"},{"bufferView":2,"byteOffset":73518,"componentType":5123,"count":153,"type":"SCALAR"},{"bufferView":0,"byteOffset":119076,"componentType":5126,"count":79,"type":"VEC3","min":[0.0437499993,-0.003504836,0.00794894248],"max":[0.0487499982,0.00148803042,0.0109641142]},{"bufferView":1,"byteOffset":119076,"componentType":5126,"count":79,"type":"VEC3"},{"bufferView":2,"byteOffset":73824,"componentType":5123,"count":234,"type":"SCALAR"},{"bufferView":0,"byteOffset":120024,"componentType":5126,"count":80,"type":"VEC3","min":[0.0462500006,-0.00773161137,0.00858441554],"max":[0.0487499982,0.00136889261,0.0175543744]},{"bufferView":1,"byteOffset":120024,"componentType":5126,"count":80,"type":"VEC3"},{"bufferView":2,"byteOffset":74292,"componentType":5123,"count":234,"type":"SCALAR"},{"bufferView":0,"byteOffset":120984,"componentType":5126,"count":94,"type":"VEC3","min":[0.0437499993,-0.00883432105,0.00794894248],"max":[0.0487499982,0.00206020637,0.0188430082]},{"bufferView":1,"byteOffset":120984,"componentType":5126,"count":94,"type":"VEC3"},{"bufferView":2,"byteOffset":74760,"componentType":5123,"count":276,"type":"SCALAR"},{"bufferView":0,"byteOffset":122112,"componentType":5126,"count":103,"type":"VEC3","min":[0.0487499982,-0.00883432105,0.00794894248],"max":[0.0487499982,0.00206020637,0.0188430082]},{"bufferView":1,"byteOffset":122112,"componentType":5126,"count":103,"type":"VEC3"},{"bufferView":2,"byteOffset":75312,"componentType":5123,"count":309,"type":"SCALAR"},{"bufferView":0,"byteOffset":123348,"componentType":5126,"count":53,"type":"VEC3","min":[0.0437499993,-0.00883432105,0.00794894248],"max":[0.0437499993,0.00206020637,0.0188430082]},{"bufferView":1,"byteOffset":123348,"componentType":5126,"count":53,"type":"VEC3"},{"bufferView":2,"byteOffset":75930,"componentType":5123,"count":153,"type":"SCALAR"},{"bufferView":0,"byteOffset":123984,"componentType":5126,"count":50,"type":"VEC3","min":[0.0462500006,-0.00773161137,0.00858441554],"max":[0.0462500006,0.00136889261,0.0175543744]},{"bufferView":1,"byteOffset":123984,"componentType":5126,"count":50,"type":"VEC3"},{"bufferView":2,"byteOffset":76236,"componentType":5123,"count":144,"type":"SCALAR"},{"bufferView":0,"byteOffset":124584,"componentType":5126,"count":24,"type":"VEC3","min":[0.0462500006,-0.00427382672,0.00858441554],"max":[0.0487499982,0.00118557259,0.0117165102]},{"bufferView":1,"byteOffset":124584,"componentType":5126,"count":24,"type":"VEC3"},{"bufferView":2,"byteOffset":76524,"componentType":5123,"count":66,"type":"SCALAR"},{"bufferView":0,"byteOffset":124872,"componentType":5126,"count":100,"type":"VEC3","min":[0.0437499993,-0.00325000007,0.00600000005],"max":[0.0482500009,0.00124999811,0.0108873453]},{"bufferView":1,"byteOffset":124872,"componentType":5126,"count":100,"type":"VEC3"},{"bufferView":2,"byteOffset":76656,"componentType":5123,"count":300,"type":"SCALAR"},{"bufferView":0,"byteOffset":126072,"componentType":5126,"count":36,"type":"VEC3","min":[0.0437499993,-0.00325000007,0.00600000005],"max":[0.0482500009,0.00124999811,0.00600000005]},{"bufferView":1,"byteOffset":126072,"componentType":5126,"count":36,"type":"VEC3"},{"bufferView":2,"byteOffset":77256,"componentType":5123,"count":102,"type":"SCALAR"}],"materials":[{"pbrMetallicRoughness":{"baseColorFactor":[0.627451003,0.627451003,0.627451003,1],"metallicFactor":0,"roughnessFactor":0},"doubleSided":true}],"meshes":[{"primitives":[{"attributes":{"POSITION":0,"NORMAL":1},"mode":4,"indices":2,"material":0}]},{"primitives":[{"attributes":{"POSITION":3,"NORMAL":4},"mode":4,"indices":5,"material":0}]},{"primitives":[{"attributes":{"POSITION":6,"NORMAL":7},"mode":4,"indices":8,"material":0}]},{"primitives":[{"attributes":{"POSITION":9,"NORMAL":10},"mode":4,"indices":11,"material":0}]},{"primitives":[{"attributes":{"POSITION":12,"NORMAL":13},"mode":4,"indices":14,"material":0}]},{"primitives":[{"attributes":{"POSITION":15,"NORMAL":16},"mode":4,"indices":17,"material":0}]},{"primitives":[{"attributes":{"POSITION":18,"NORMAL":19},"mode":4,"indices":20,"material":0}]},{"primitives":[{"attributes":{"POSITION":21,"NORMAL":22},"mode":4,"indices":23,"material":0}]},{"primitives":[{"attributes":{"POSITION":24,"NORMAL":25},"mode":4,"indices":26,"material":0}]},{"primitives":[{"attributes":{"POSITION":27,"NORMAL":28},"mode":4,"indices":29,"material":0}]},{"primitives":[{"attributes":{"POSITION":30,"NORMAL":31},"mode":4,"indices":32,"material":0}]},{"primitives":[{"attributes":{"POSITION":33,"NORMAL":34},"mode":4,"indices":35,"material":0}]},{"primitives":[{"attributes":{"POSITION":36,"NORMAL":37},"mode":4,"indices":38,"material":0}]},{"primitives":[{"attributes":{"POSITION":39,"NORMAL":40},"mode":4,"indices":41,"material":0}]},{"primitives":[{"attributes":{"POSITION":42,"NORMAL":43},"mode":4,"indices":44,"material":0}]},{"primitives":[{"attributes":{"POSITION":45,"NORMAL":46},"mode":4,"indices":47,"material":0}]},{"primitives":[{"attributes":{"POSITION":48,"NORMAL":49},"mode":4,"indices":50,"material":0}]},{"primitives":[{"attributes":{"POSITION":51,"NORMAL":52},"mode":4,"indices":53,"material":0}]},{"primitives":[{"attributes":{"POSITION":54,"NORMAL":55},"mode":4,"indices":56,"material":0}]},{"primitives":[{"attributes":{"POSITION":57,"NORMAL":58},"mode":4,"indices":59,"material":0}]},{"primitives":[{"attributes":{"POSITION":60,"NORMAL":61},"mode":4,"indices":62,"material":0}]},{"primitives":[{"attributes":{"POSITION":63,"NORMAL":64},"mode":4,"indices":65,"material":0}]},{"primitives":[{"attributes":{"POSITION":66,"NORMAL":67},"mode":4,"indices":68,"material":0}]},{"primitives":[{"attributes":{"POSITION":69,"NORMAL":70},"mode":4,"indices":71,"material":0}]},{"primitives":[{"attributes":{"POSITION":72,"NORMAL":73},"mode":4,"indices":74,"material":0}]},{"primitives":[{"attributes":{"POSITION":75,"NORMAL":76},"mode":4,"indices":77,"material":0}]},{"primitives":[{"attributes":{"POSITION":78,"NORMAL":79},"mode":4,"indices":80,"material":0}]},{"primitives":[{"attributes":{"POSITION":81,"NORMAL":82},"mode":4,"indices":83,"material":0}]},{"primitives":[{"attributes":{"POSITION":84,"NORMAL":85},"mode":4,"indices":86,"material":0}]},{"primitives":[{"attributes":{"POSITION":87,"NORMAL":88},"mode":4,"indices":89,"material":0}]},{"primitives":[{"attributes":{"POSITION":90,"NORMAL":91},"mode":4,"indices":92,"material":0}]},{"primitives":[{"attributes":{"POSITION":93,"NORMAL":94},"mode":4,"indices":95,"material":0}]},{"primitives":[{"attributes":{"POSITION":96,"NORMAL":97},"mode":4,"indices":98,"material":0}]},{"primitives":[{"attributes":{"POSITION":99,"NORMAL":100},"mode":4,"indices":101,"material":0}]},{"primitives":[{"attributes":{"POSITION":102,"NORMAL":103},"mode":4,"indices":104,"material":0}]},{"primitives":[{"attributes":{"POSITION":105,"NORMAL":106},"mode":4,"indices":107,"material":0}]},{"primitives":[{"attributes":{"POSITION":108,"NORMAL":109},"mode":4,"indices":110,"material":0}]},{"primitives":[{"attributes":{"POSITION":111,"NORMAL":112},"mode":4,"indices":113,"material":0}]},{"primitives":[{"attributes":{"POSITION":114,"NORMAL":115},"mode":4,"indices":116,"material":0}]},{"primitives":[{"attributes":{"POSITION":117,"NORMAL":118},"mode":4,"indices":119,"material":0}]},{"primitives":[{"attributes":{"POSITION":120,"NORMAL":121},"mode":4,"indices":122,"material":0}]},{"primitives":[{"attributes":{"POSITION":123,"NORMAL":124},"mode":4,"indices":125,"material":0}]},{"primitives":[{"attributes":{"POSITION":126,"NORMAL":127},"mode":4,"indices":128,"material":0}]},{"primitives":[{"attributes":{"POSITION":129,"NORMAL":130},"mode":4,"indices":131,"material":0}]},{"primitives":[{"attributes":{"POSITION":132,"NORMAL":133},"mode":4,"indices":134,"material":0}]},{"primitives":[{"attributes":{"POSITION":135,"NORMAL":136},"mode":4,"indices":137,"material":0}]},{"primitives":[{"attributes":{"POSITION":138,"NORMAL":139},"mode":4,"indices":140,"material":0}]},{"primitives":[{"attributes":{"POSITION":141,"NORMAL":142},"mode":4,"indices":143,"material":0}]},{"primitives":[{"attributes":{"POSITION":144,"NORMAL":145},"mode":4,"indices":146,"material":0}]},{"primitives":[{"attributes":{"POSITION":147,"NORMAL":148},"mode":4,"indices":149,"material":0}]},{"primitives":[{"attributes":{"POSITION":150,"NORMAL":151},"mode":4,"indices":152,"material":0}]},{"primitives":[{"attributes":{"POSITION":153,"NORMAL":154},"mode":4,"indices":155,"material":0}]},{"primitives":[{"attributes":{"POSITION":156,"NORMAL":157},"mode":4,"indices":158,"material":0}]},{"primitives":[{"attributes":{"POSITION":159,"NORMAL":160},"mode":4,"indices":161,"material":0}]},{"primitives":[{"attributes":{"POSITION":162,"NORMAL":163},"mode":4,"indices":164,"material":0}]},{"primitives":[{"attributes":{"POSITION":165,"NORMAL":166},"mode":4,"indices":167,"material":0}]},{"primitives":[{"attributes":{"POSITION":168,"NORMAL":169},"mode":4,"indices":170,"material":0}]},{"primitives":[{"attributes":{"POSITION":171,"NORMAL":172},"mode":4,"indices":173,"material":0}]},{"primitives":[{"attributes":{"POSITION":174,"NORMAL":175},"mode":4,"indices":176,"material":0}]},{"primitives":[{"attributes":{"POSITION":177,"NORMAL":178},"mode":4,"indices":179,"material":0}]},{"primitives":[{"attributes":{"POSITION":180,"NORMAL":181},"mode":4,"indices":182,"material":0}]},{"primitives":[{"attributes":{"POSITION":183,"NORMAL":184},"mode":4,"indices":185,"material":0}]},{"primitives":[{"attributes":{"POSITION":186,"NORMAL":187},"mode":4,"indices":188,"material":0}]},{"primitives":[{"attributes":{"POSITION":189,"NORMAL":190},"mode":4,"indices":191,"material":0}]},{"primitives":[{"attributes":{"POSITION":192,"NORMAL":193},"mode":4,"indices":194,"material":0}]},{"primitives":[{"attributes":{"POSITION":195,"NORMAL":196},"mode":4,"indices":197,"material":0}]},{"primitives":[{"attributes":{"POSITION":198,"NORMAL":199},"mode":4,"indices":200,"material":0}]},{"primitives":[{"attributes":{"POSITION":201,"NORMAL":202},"mode":4,"indices":203,"material":0}]},{"primitives":[{"attributes":{"POSITION":204,"NORMAL":205},"mode":4,"indices":206,"material":0}]},{"primitives":[{"attributes":{"POSITION":207,"NORMAL":208},"mode":4,"indices":209,"material":0}]},{"primitives":[{"attributes":{"POSITION":210,"NORMAL":211},"mode":4,"indices":212,"material":0}]},{"primitives":[{"attributes":{"POSITION":213,"NORMAL":214},"mode":4,"indices":215,"material":0}]},{"primitives":[{"attributes":{"POSITION":216,"NORMAL":217},"mode":4,"indices":218,"material":0}]},{"primitives":[{"attributes":{"POSITION":219,"NORMAL":220},"mode":4,"indices":221,"material":0}]},{"primitives":[{"attributes":{"POSITION":222,"NORMAL":223},"mode":4,"indices":224,"material":0}]},{"primitives":[{"attributes":{"POSITION":225,"NORMAL":226},"mode":4,"indices":227,"material":0}]},{"primitives":[{"attributes":{"POSITION":228,"NORMAL":229},"mode":4,"indices":230,"material":0}]},{"primitives":[{"attributes":{"POSITION":231,"NORMAL":232},"mode":4,"indices":233,"material":0}]},{"primitives":[{"attributes":{"POSITION":234,"NORMAL":235},"mode":4,"indices":236,"material":0}]},{"primitives":[{"attributes":{"POSITION":237,"NORMAL":238},"mode":4,"indices":239,"material":0}]},{"primitives":[{"attributes":{"POSITION":240,"NORMAL":241},"mode":4,"indices":242,"material":0}]},{"primitives":[{"attributes":{"POSITION":243,"NORMAL":244},"mode":4,"indices":245,"material":0}]},{"primitives":[{"attributes":{"POSITION":246,"NORMAL":247},"mode":4,"indices":248,"material":0}]},{"primitives":[{"attributes":{"POSITION":249,"NORMAL":250},"mode":4,"indices":251,"material":0}]},{"primitives":[{"attributes":{"POSITION":252,"NORMAL":253},"mode":4,"indices":254,"material":0}]},{"primitives":[{"attributes":{"POSITION":255,"NORMAL":256},"mode":4,"indices":257,"material":0}]},{"primitives":[{"attributes":{"POSITION":258,"NORMAL":259},"mode":4,"indices":260,"material":0}]},{"primitives":[{"attributes":{"POSITION":261,"NORMAL":262},"mode":4,"indices":263,"material":0}]},{"primitives":[{"attributes":{"POSITION":264,"NORMAL":265},"mode":4,"indices":266,"material":0}]},{"primitives":[{"attributes":{"POSITION":267,"NORMAL":268},"mode":4,"indices":269,"material":0}]},{"primitives":[{"attributes":{"POSITION":270,"NORMAL":271},"mode":4,"indices":272,"material":0}]},{"primitives":[{"attributes":{"POSITION":273,"NORMAL":274},"mode":4,"indices":275,"material":0}]},{"primitives":[{"attributes":{"POSITION":276,"NORMAL":277},"mode":4,"indices":278,"material":0}]},{"primitives":[{"attributes":{"POSITION":279,"NORMAL":280},"mode":4,"indices":281,"material":0}]},{"primitives":[{"attributes":{"POSITION":282,"NORMAL":283},"mode":4,"indices":284,"material":0}]},{"primitives":[{"attributes":{"POSITION":285,"NORMAL":286},"mode":4,"indices":287,"material":0}]},{"primitives":[{"attributes":{"POSITION":288,"NORMAL":289},"mode":4,"indices":290,"material":0}]},{"primitives":[{"attributes":{"POSITION":291,"NORMAL":292},"mode":4,"indices":293,"material":0}]},{"primitives":[{"attributes":{"POSITION":294,"NORMAL":295},"mode":4,"indices":296,"material":0}]},{"primitives":[{"attributes":{"POSITION":297,"NORMAL":298},"mode":4,"indices":299,"material":0}]},{"primitives":[{"attributes":{"POSITION":300,"NORMAL":301},"mode":4,"indices":302,"material":0}]},{"primitives":[{"attributes":{"POSITION":303,"NORMAL":304},"mode":4,"indices":305,"material":0}]},{"primitives":[{"attributes":{"POSITION":306,"NORMAL":307},"mode":4,"indices":308,"material":0}]},{"primitives":[{"attributes":{"POSITION":309,"NORMAL":310},"mode":4,"indices":311,"material":0}]},{"primitives":[{"attributes":{"POSITION":312,"NORMAL":313},"mode":4,"indices":314,"material":0}]},{"primitives":[{"attributes":{"POSITION":315,"NORMAL":316},"mode":4,"indices":317,"material":0}]},{"primitives":[{"attributes":{"POSITION":318,"NORMAL":319},"mode":4,"indices":320,"material":0}]},{"primitives":[{"attributes":{"POSITION":321,"NORMAL":322},"mode":4,"indices":323,"material":0}]},{"primitives":[{"attributes":{"POSITION":324,"NORMAL":325},"mode":4,"indices":326,"material":0}]},{"primitives":[{"attributes":{"POSITION":327,"NORMAL":328},"mode":4,"indices":329,"material":0}]},{"primitives":[{"attributes":{"POSITION":330,"NORMAL":331},"mode":4,"indices":332,"material":0}]},{"primitives":[{"attributes":{"POSITION":333,"NORMAL":334},"mode":4,"indices":335,"material":0}]},{"primitives":[{"attributes":{"POSITION":336,"NORMAL":337},"mode":4,"indices":338,"material":0}]},{"primitives":[{"attributes":{"POSITION":339,"NORMAL":340},"mode":4,"indices":341,"material":0}]},{"primitives":[{"attributes":{"POSITION":342,"NORMAL":343},"mode":4,"indices":344,"material":0}]},{"primitives":[{"attributes":{"POSITION":345,"NORMAL":346},"mode":4,"indices":347,"material":0}]},{"primitives":[{"attributes":{"POSITION":348,"NORMAL":349},"mode":4,"indices":350,"material":0}]},{"primitives":[{"attributes":{"POSITION":351,"NORMAL":352},"mode":4,"indices":353,"material":0}]},{"primitives":[{"attributes":{"POSITION":354,"NORMAL":355},"mode":4,"indices":356,"material":0}]},{"primitives":[{"attributes":{"POSITION":357,"NORMAL":358},"mode":4,"indices":359,"material":0}]},{"primitives":[{"attributes":{"POSITION":360,"NORMAL":361},"mode":4,"indices":362,"material":0}]},{"primitives":[{"attributes":{"POSITION":363,"NORMAL":364},"mode":4,"indices":365,"material":0}]},{"primitives":[{"attributes":{"POSITION":366,"NORMAL":367},"mode":4,"indices":368,"material":0}]},{"primitives":[{"attributes":{"POSITION":369,"NORMAL":370},"mode":4,"indices":371,"material":0}]},{"primitives":[{"attributes":{"POSITION":372,"NORMAL":373},"mode":4,"indices":374,"material":0}]},{"primitives":[{"attributes":{"POSITION":375,"NORMAL":376},"mode":4,"indices":377,"material":0}]},{"primitives":[{"attributes":{"POSITION":378,"NORMAL":379},"mode":4,"indices":380,"material":0}]},{"primitives":[{"attributes":{"POSITION":381,"NORMAL":382},"mode":4,"indices":383,"material":0}]},{"primitives":[{"attributes":{"POSITION":384,"NORMAL":385},"mode":4,"indices":386,"material":0}]},{"primitives":[{"attributes":{"POSITION":387,"NORMAL":388},"mode":4,"indices":389,"material":0}]},{"primitives":[{"attributes":{"POSITION":390,"NORMAL":391},"mode":4,"indices":392,"material":0}]},{"primitives":[{"attributes":{"POSITION":393,"NORMAL":394},"mode":4,"indices":395,"material":0}]},{"primitives":[{"attributes":{"POSITION":396,"NORMAL":397},"mode":4,"indices":398,"material":0}]},{"primitives":[{"attributes":{"POSITION":399,"NORMAL":400},"mode":4,"indices":401,"material":0}]},{"primitives":[{"attributes":{"POSITION":402,"NORMAL":403},"mode":4,"indices":404,"material":0}]},{"primitives":[{"attributes":{"POSITION":405,"NORMAL":406},"mode":4,"indices":407,"material":0}]},{"primitives":[{"attributes":{"POSITION":408,"NORMAL":409},"mode":4,"indices":410,"material":0}]},{"primitives":[{"attributes":{"POSITION":411,"NORMAL":412},"mode":4,"indices":413,"material":0}]},{"primitives":[{"attributes":{"POSITION":414,"NORMAL":415},"mode":4,"indices":416,"material":0}]},{"primitives":[{"attributes":{"POSITION":417,"NORMAL":418},"mode":4,"indices":419,"material":0}]},{"primitives":[{"attributes":{"POSITION":420,"NORMAL":421},"mode":4,"indices":422,"material":0}]},{"primitives":[{"attributes":{"POSITION":423,"NORMAL":424},"mode":4,"indices":425,"material":0}]},{"primitives":[{"attributes":{"POSITION":426,"NORMAL":427},"mode":4,"indices":428,"material":0}]},{"primitives":[{"attributes":{"POSITION":429,"NORMAL":430},"mode":4,"indices":431,"material":0}]},{"primitives":[{"attributes":{"POSITION":432,"NORMAL":433},"mode":4,"indices":434,"material":0}]},{"primitives":[{"attributes":{"POSITION":435,"NORMAL":436},"mode":4,"indices":437,"material":0}]},{"primitives":[{"attributes":{"POSITION":438,"NORMAL":439},"mode":4,"indices":440,"material":0}]},{"primitives":[{"attributes":{"POSITION":441,"NORMAL":442},"mode":4,"indices":443,"material":0}]},{"primitives":[{"attributes":{"POSITION":444,"NORMAL":445},"mode":4,"indices":446,"material":0}]},{"primitives":[{"attributes":{"POSITION":447,"NORMAL":448},"mode":4,"indices":449,"material":0}]},{"primitives":[{"attributes":{"POSITION":450,"NORMAL":451},"mode":4,"indices":452,"material":0}]},{"primitives":[{"attributes":{"POSITION":453,"NORMAL":454},"mode":4,"indices":455,"material":0}]},{"primitives":[{"attributes":{"POSITION":456,"NORMAL":457},"mode":4,"indices":458,"material":0}]},{"primitives":[{"attributes":{"POSITION":459,"NORMAL":460},"mode":4,"indices":461,"material":0}]},{"primitives":[{"attributes":{"POSITION":462,"NORMAL":463},"mode":4,"indices":464,"material":0}]}],"nodes":[{"mesh":0},{"mesh":1},{"mesh":2},{"mesh":3},{"mesh":4},{"mesh":5},{"mesh":6},{"mesh":7},{"mesh":8},{"mesh":9},{"mesh":10},{"mesh":11},{"mesh":12},{"mesh":13},{"mesh":14},{"mesh":15},{"mesh":16},{"mesh":17},{"mesh":18},{"mesh":19},{"mesh":20},{"mesh":21},{"mesh":22},{"mesh":23},{"mesh":24},{"mesh":25},{"mesh":26},{"mesh":27},{"mesh":28},{"mesh":29},{"mesh":30},{"mesh":31},{"mesh":32},{"mesh":33},{"mesh":34},{"mesh":35},{"mesh":36},{"mesh":37},{"mesh":38},{"mesh":39},{"mesh":40},{"mesh":41},{"mesh":42},{"mesh":43},{"mesh":44},{"mesh":45},{"mesh":46},{"mesh":47},{"mesh":48},{"mesh":49},{"mesh":50},{"mesh":51},{"mesh":52},{"mesh":53},{"mesh":54},{"mesh":55},{"mesh":56},{"mesh":57},{"mesh":58},{"mesh":59},{"mesh":60},{"mesh":61},{"mesh":62},{"mesh":63},{"mesh":64},{"mesh":65},{"mesh":66},{"mesh":67},{"mesh":68},{"mesh":69},{"mesh":70},{"mesh":71},{"mesh":72},{"mesh":73},{"mesh":74},{"mesh":75},{"mesh":76},{"mesh":77},{"mesh":78},{"mesh":79},{"mesh":80},{"mesh":81},{"mesh":82},{"mesh":83},{"mesh":84},{"mesh":85},{"mesh":86},{"mesh":87},{"mesh":88},{"mesh":89},{"mesh":90},{"mesh":91},{"mesh":92},{"mesh":93},{"mesh":94},{"mesh":95},{"mesh":96},{"mesh":97},{"mesh":98},{"mesh":99},{"mesh":100},{"mesh":101},{"mesh":102},{"mesh":103},{"mesh":104},{"mesh":105},{"mesh":106},{"mesh":107},{"mesh":108},{"mesh":109},{"mesh":110},{"mesh":111},{"mesh":112},{"mesh":113},{"mesh":114},{"mesh":115},{"mesh":116},{"mesh":117},{"mesh":118},{"mesh":119},{"mesh":120},{"mesh":121},{"mesh":122},{"mesh":123},{"mesh":124},{"mesh":125},{"mesh":126},{"mesh":127},{"mesh":128},{"mesh":129},{"mesh":130},{"mesh":131},{"mesh":132},{"mesh":133},{"mesh":134},{"mesh":135},{"mesh":136},{"mesh":137},{"mesh":138},{"mesh":139},{"mesh":140},{"mesh":141},{"mesh":142},{"mesh":143},{"mesh":144},{"mesh":145},{"mesh":146},{"mesh":147},{"mesh":148},{"mesh":149},{"mesh":150},{"mesh":151},{"mesh":152},{"mesh":153},{"mesh":154},{"name":"mouse parts v17","children":[156,157,158,159,160,161,162,163,164,165,166,167,168,169,170,171,172,173,174,175,176,177,178,179,180,181,182,183,184,185,186,187,188,189,190,191,192,193,194,195,196,197,198,199,200,201,202,203,204,205,206,207,208,209,210,211,212,213,214,215,216,217,218,219,220,221,222,223,224,225,226,227,228,229,230,231,232,233,234,235,236,237,238,239,240,241,242,243,244,245,246,247,248,249,250,251,252,253,254,255,256,257,258,259,260,261,262,263,264,265,266,267,268,269,270,271,272,273,274,275,276,277,278,279,280,281,282,283,284,285,286,287,288,289,290,291,292,293,294,295,296,297,298,299,300,301,302,303,304,305,306,307,308,309,310]},{"name":"mouse parts v17","children":[0]},{"name":"mouse parts v17","children":[1]},{"name":"mouse parts v17","children":[2]},{"name":"mouse parts v17","children":[3]},{"name":"mouse parts v17","children":[4]},{"name":"mouse parts v17","children":[5]},{"name":"mouse parts v17","children":[6]},{"name":"mouse parts v17","children":[7]},{"name":"mouse parts v17","children":[8]},{"name":"mouse parts v17","children":[9]},{"name":"mouse parts v17","children":[10]},{"name":"mouse parts v17","children":[11]},{"name":"mouse parts v17","children":[12]},{"name":"mouse parts v17","children":[13]},{"name":"mouse parts v17","children":[14]},{"name":"mouse parts v17","children":[15]},{"name":"mouse parts v17","children":[16]},{"name":"mouse parts v17","children":[17]},{"name":"mouse parts v17","children":[18]},{"name":"mouse parts v17","children":[19]},{"name":"mouse parts v17","children":[20]},{"name":"mouse parts v17","children":[21]},{"name":"mouse parts v17","children":[22]},{"name":"mouse parts v17","children":[23]},{"name":"mouse parts v17","children":[24]},{"name":"mouse parts v17","children":[25]},{"name":"mouse parts v17","children":[26]},{"name":"mouse parts v17","children":[27]},{"name":"mouse parts v17","children":[28]},{"name":"mouse parts v17","children":[29]},{"name":"mouse parts v17","children":[30]},{"name":"mouse parts v17","children":[31]},{"name":"mouse parts v17","children":[32]},{"name":"mouse parts v17","children":[33]},{"name":"mouse parts v17","children":[34]},{"name":"mouse parts v17","children":[35]},{"name":"mouse parts v17","children":[36]},{"name":"mouse parts v17","children":[37]},{"name":"mouse parts v17","children":[38]},{"name":"mouse parts v17","children":[39]},{"name":"mouse parts v17","children":[40]},{"name":"mouse parts v17","children":[41]},{"name":"mouse parts v17","children":[42]},{"name":"mouse parts v17","children":[43]},{"name":"mouse parts v17","children":[44]},{"name":"toy stuff v8","children":[45]},{"name":"toy stuff v8","children":[46]},{"name":"toy stuff v8","children":[47]},{"name":"toy stuff v8","children":[48]},{"name":"toy stuff v8","children":[49]},{"name":"toy stuff v8","children":[50]},{"name":"toy stuff v8","children":[51]},{"name":"toy stuff v8","children":[52]},{"name":"toy stuff v8","children":[53]},{"name":"toy stuff v8","children":[54]},{"name":"toy stuff v8","children":[55]},{"name":"toy stuff v8","children":[56]},{"name":"toy stuff v8","children":[57]},{"name":"toy stuff v8","children":[58]},{"name":"toy stuff v8","children":[59]},{"name":"toy stuff v8","children":[60]},{"name":"toy stuff v8","children":[61]},{"name":"toy stuff v8","children":[62]},{"name":"toy stuff v8","children":[63]},{"name":"toy stuff v8","children":[64]},{"name":"toy stuff v8","children":[65]},{"name":"toy stuff v8","children":[66]},{"name":"toy stuff v8","children":[67]},{"name":"toy stuff v8","children":[68]},{"name":"toy stuff v8","children":[69]},{"name":"toy stuff v8","children":[70]},{"name":"toy stuff v8","children":[71]},{"name":"toy stuff v8","children":[72]},{"name":"toy stuff v8","children":[73]},{"name":"toy stuff v8","children":[74]},{"name":"toy stuff v8","children":[75]},{"name":"toy stuff v8","children":[76]},{"name":"toy stuff v8","children":[77]},{"name":"toy stuff v8","children":[78]},{"name":"toy stuff v8","children":[79]},{"name":"toy stuff v8","children":[80]},{"name":"toy stuff v8","children":[81]},{"name":"toy stuff v8","children":[82]},{"name":"toy stuff v8","children":[83]},{"name":"toy stuff v8","children":[84]},{"name":"toy stuff v8","children":[85]},{"name":"toy stuff v8","children":[86]},{"name":"toy stuff v8","children":[87]},{"name":"toy stuff v8","children":[88]},{"name":"toy stuff v8","children":[89]},{"name":"toy stuff v8","children":[90]},{"name":"toy stuff v8","children":[91]},{"name":"toy stuff v8","children":[92]},{"name":"toy stuff v8","children":[93]},{"name":"toy stuff v8","children":[94]},{"name":"toy stuff v8","children":[95]},{"name":"toy stuff v8","children":[96]},{"name":"toy stuff v8","children":[97]},{"name":"toy stuff v8","children":[98]},{"name":"Component2","children":[99]},{"name":"Component2","children":[100]},{"name":"Component2","children":[101]},{"name":"Component2","children":[102]},{"name":"Component2","children":[103]},{"name":"Component2","children":[104]},{"name":"Component2","children":[105]},{"name":"Component2","children":[106]},{"name":"Component2","children":[107]},{"name":"Component2","children":[108]},{"name":"Component2","children":[109]},{"name":"Component2","children":[110]},{"name":"Component2","children":[111]},{"name":"Component2","children":[112]},{"name":"Component2","children":[113]},{"name":"Component2","children":[114]},{"name":"Component2","children":[115]},{"name":"Component3","children":[116]},{"name":"Component3","children":[117]},{"name":"Component3","children":[118]},{"name":"Component3","children":[119]},{"name":"Component3","children":[120]},{"name":"Component3","children":[121]},{"name":"Component3","children":[122]},{"name":"Component3","children":[123]},{"name":"Component3","children":[124]},{"name":"Component3","children":[125]},{"name":"Component4","children":[126]},{"name":"Component4","children":[127]},{"name":"Component4","children":[128]},{"name":"Component4","children":[129]},{"name":"Component4","children":[130]},{"name":"Component4","children":[131]},{"name":"Component4","children":[132]},{"name":"Component4","children":[133]},{"name":"Component4","children":[134]},{"name":"Component4","children":[135]},{"name":"Component4","children":[136]},{"name":"ears v5","children":[137]},{"name":"ears v5","children":[138]},{"name":"ears v5","children":[139]},{"name":"ears v5","children":[140]},{"name":"ears v5","children":[141]},{"name":"ears v5","children":[142]},{"name":"ears v5","children":[143]},{"name":"ears v5","children":[144]},{"name":"ears v5","children":[145]},{"name":"ears v5","children":[146]},{"name":"ears v5","children":[147]},{"name":"ears v5","children":[148]},{"name":"ears v5","children":[149]},{"name":"ears v5","children":[150]},{"name":"ears v5","children":[151]},{"name":"ears v5","children":[152]},{"name":"ears v5","children":[153]},{"name":"ears v5","children":[154]}],"scenes":[{"name":"mouse parts v17","nodes":[155]}]}